# Blender v2.83.1 OBJ File: 'Palais.blend'
# www.blender.org
mtllib Parquet.mtl
o Parquet_PalaisDeCristal_2022-07-18.007
v -2.065766 4.605556 -0.162925
v -2.065769 4.605556 -0.221425
v -2.065760 0.545378 -0.221425
v -2.065760 0.545378 -0.221425
v -2.065760 0.545377 -0.162925
v -2.065766 4.605556 -0.162925
v 16.177532 16.196117 -0.221425
v 16.177532 16.196117 -0.162925
v 16.177547 1.359754 -0.162926
v 16.177547 1.359754 -0.221426
v 15.257447 0.545406 -0.221426
v 15.257447 0.545406 -0.162925
v -2.065760 0.545377 -0.162925
v -2.065760 0.545378 -0.221425
v 15.531993 1.085148 -0.162925
v 11.321100 4.605577 -0.221425
v 11.321100 4.605577 -0.162925
v 15.531989 1.083460 -0.162925
v 11.289891 4.630372 -0.162924
v 11.289891 4.630372 -0.221424
v 15.531989 1.083460 -0.221426
v 11.321100 4.605577 -0.162925
v 11.321100 4.605577 -0.221425
v 10.612979 4.605575 -0.221425
v 10.612979 4.605575 -0.162925
v -2.065766 4.605556 -0.162925
v 15.261790 0.812115 -0.162925
v 15.531993 1.085148 -0.162925
v 10.612979 4.605575 -0.162925
v -2.065760 0.545377 -0.162925
v -2.065766 4.605556 -0.162925
v 11.289867 16.196110 -0.162925
v 11.289867 16.196110 -0.221425
v 11.289891 5.233349 -0.221424
v 11.289891 5.233349 -0.162924
v 11.289891 4.630372 -0.162924
v 16.177532 16.196117 -0.162925
v 11.289867 16.196110 -0.162925
v 11.289891 5.233349 -0.162924
v 16.177547 1.359754 -0.162926
v 11.289891 4.630372 -0.162924
v 15.831437 1.367538 -0.162925
v -2.065760 0.545378 -0.221425
v -2.065769 4.605556 -0.221425
v 10.612979 4.605575 -0.221425
v 15.257447 0.545406 -0.221426
v 11.321100 4.605577 -0.221425
v 15.261790 0.812115 -0.221426
v 15.531987 1.085151 -0.221426
v 15.531989 1.083460 -0.162925
v 15.531989 1.083460 -0.221426
v 15.831437 1.367538 -0.221426
v 15.831437 1.367538 -0.162925
v 16.177547 1.359754 -0.221426
v 16.177547 1.359754 -0.162926
v 15.531987 1.085151 -0.221426
v 15.531993 1.085148 -0.162925
v 15.261790 0.812115 -0.162925
v 15.261790 0.812115 -0.221426
v 15.257447 0.545406 -0.162925
v 15.257447 0.545406 -0.221426
v 11.289891 4.630372 -0.221424
v 15.831437 1.367538 -0.221426
v 15.531989 1.083460 -0.221426
v 11.289891 5.233349 -0.221424
v 16.177547 1.359754 -0.221426
v 11.289867 16.196110 -0.221425
v -2.065760 0.545378 -0.221425
v -2.065766 3.252162 -0.221425
v -2.065760 0.545377 -0.162925
v -20.684963 1.406684 -0.221425
v -20.684963 1.406684 -0.162924
v -20.684990 16.760721 -0.162923
v -2.065766 3.252162 -0.221425
v -2.065769 4.605556 -0.221425
v -2.065760 0.545377 -0.162925
v -20.063957 1.062499 -0.162925
v -20.063957 1.062499 -0.221425
v -19.836224 0.827542 -0.221425
v -19.836224 0.827542 -0.162925
v -19.836224 0.827542 -0.221425
v -19.860226 0.545351 -0.221425
v -19.860226 0.545351 -0.162925
v -20.063957 1.060810 -0.221425
v -20.063957 1.060810 -0.162925
v -20.404049 1.404326 -0.162925
v -20.404049 1.404326 -0.221425
v -20.404049 1.404326 -0.162925
v -20.684963 1.406684 -0.162924
v -20.684963 1.406684 -0.221425
v -15.809393 4.605534 -0.162925
v -15.809393 4.605534 -0.221425
v -20.063957 1.062499 -0.221425
v -20.063957 1.060810 -0.162925
v -20.063957 1.060810 -0.221425
v -15.809393 4.603846 -0.221425
v -15.809393 4.603846 -0.162925
v -19.860226 0.545351 -0.162925
v -19.860226 0.545351 -0.221425
v -2.065760 0.545377 -0.221425
v -2.065760 0.545377 -0.162925
v -2.065760 0.545378 -0.221425
v -15.809393 4.605534 -0.221425
v -15.809393 4.605534 -0.162925
v -15.202393 4.605536 -0.162925
v -15.202393 4.605536 -0.221425
v -2.065766 4.605556 -0.162925
v -2.065769 4.605556 -0.221425
v -2.065760 0.545377 -0.162925
v -2.065766 4.605556 -0.162925
v -15.202393 4.605536 -0.162925
v -15.809393 4.605534 -0.162925
v -19.836224 0.827542 -0.162925
v -20.063957 1.062499 -0.162925
v -15.809393 4.603846 -0.162925
v -15.809393 4.603846 -0.221425
v -15.809286 5.267039 -0.221425
v -15.807536 16.760729 -0.221423
v -15.807536 16.760729 -0.162923
v -20.404049 1.404326 -0.162925
v -20.063957 1.060810 -0.162925
v -15.809393 4.603846 -0.162925
v -20.684963 1.406684 -0.162924
v -15.809286 5.267039 -0.162924
v -20.684990 16.760721 -0.162923
v -15.807536 16.760729 -0.162923
v -15.809393 4.603846 -0.221425
v -20.404049 1.404326 -0.221425
v -15.809286 5.267039 -0.221425
v -20.684963 1.406684 -0.221425
v -20.684986 16.760721 -0.221423
v -15.807536 16.760729 -0.221423
v -15.809393 4.605534 -0.221425
v -19.836224 0.827542 -0.221425
v -20.063957 1.062499 -0.221425
v -15.202393 4.605536 -0.221425
v -19.860226 0.545351 -0.221425
v -2.065760 0.545377 -0.221425
v -2.065769 4.605556 -0.221425
v -2.065760 0.545378 -0.221425
v -2.061868 4.609467 -1.109687
v -2.061868 4.609467 -1.168187
v -2.061862 0.549289 -1.168188
v -2.061862 0.549289 -1.168188
v -2.061862 0.549288 -1.109688
v -2.061868 4.609467 -1.109687
v 16.181431 16.200026 -1.168187
v 16.181431 16.200026 -1.109687
v 16.181446 1.363661 -1.168188
v 15.261350 0.549318 -1.168188
v 15.261350 0.549318 -1.109688
v -2.061862 0.549288 -1.109688
v 15.535890 1.089062 -1.109688
v 15.535890 1.089062 -1.168188
v 11.324999 4.609488 -1.168188
v 11.324999 4.609488 -1.109688
v 15.535890 1.087371 -1.109688
v 11.293792 4.634285 -1.109687
v 11.293792 4.634285 -1.168187
v 11.324999 4.609488 -1.168188
v 10.616877 4.609485 -1.168188
v 10.616877 4.609485 -1.109688
v -2.061868 4.609467 -1.168187
v -2.061868 4.609467 -1.109687
v 15.265689 0.816026 -1.109688
v 15.535890 1.089062 -1.109688
v 11.324999 4.609488 -1.109688
v 15.261350 0.549318 -1.109688
v 10.616877 4.609485 -1.109688
v -2.061862 0.549288 -1.109688
v -2.061868 4.609467 -1.109687
v 11.293768 16.200018 -1.109687
v 11.293768 16.200018 -1.168187
v 11.293789 5.237260 -1.168187
v 11.293789 5.237260 -1.109687
v 11.293792 4.634285 -1.109687
v 16.181431 16.200026 -1.109687
v 11.293768 16.200018 -1.109687
v 16.181446 1.363661 -1.109688
v 11.293792 4.634285 -1.109687
v 15.835341 1.371449 -1.109688
v 15.535890 1.087371 -1.109688
v -2.061862 0.549289 -1.168188
v -2.061868 4.609467 -1.168187
v 10.616877 4.609485 -1.168188
v 15.261350 0.549318 -1.168188
v 11.324999 4.609488 -1.168188
v 15.265689 0.816026 -1.168188
v 15.535890 1.089062 -1.168188
v 15.535890 1.087371 -1.168188
v 15.835341 1.371449 -1.168188
v 15.835341 1.371449 -1.109688
v 16.181446 1.363661 -1.168188
v 16.181446 1.363661 -1.109688
v 15.535890 1.089062 -1.168188
v 15.535890 1.089062 -1.109688
v 15.265689 0.816026 -1.109688
v 15.265689 0.816026 -1.168188
v 15.261350 0.549318 -1.109688
v 15.261350 0.549318 -1.168188
v 11.293792 4.634285 -1.168187
v 15.535890 1.087371 -1.168188
v 11.293789 5.237260 -1.168187
v 16.181446 1.363661 -1.168188
v 16.181431 16.200026 -1.168187
v 11.293768 16.200018 -1.168187
v -2.061868 3.256072 -1.168187
v -2.061862 0.549288 -1.109688
v -20.681065 1.410595 -1.168187
v -20.681065 1.410595 -1.109687
v -20.681091 16.764633 -1.109685
v -20.681087 16.764631 -1.168185
v -2.061868 3.256072 -1.168187
v -2.061868 4.609467 -1.168187
v -2.061868 4.609467 -1.109687
v -2.061862 0.549288 -1.109688
v -19.832325 0.831453 -1.168187
v -19.832325 0.831453 -1.109687
v -19.832325 0.831453 -1.109687
v -19.832325 0.831453 -1.168187
v -19.856323 0.549261 -1.168187
v -20.060059 1.064721 -1.109687
v -20.400150 1.408237 -1.109687
v -20.400150 1.408237 -1.168187
v -20.400150 1.408237 -1.109687
v -20.681065 1.410595 -1.109687
v -20.681065 1.410595 -1.168187
v -20.060059 1.066410 -1.109687
v -15.805494 4.609445 -1.109687
v -15.805494 4.609445 -1.168187
v -20.060059 1.066410 -1.168187
v -20.060059 1.064721 -1.109687
v -20.060059 1.064721 -1.168187
v -15.805495 4.607757 -1.168187
v -15.805495 4.607757 -1.109687
v -15.803638 16.764639 -1.109685
v -15.803638 16.764639 -1.168185
v -19.856323 0.549261 -1.109687
v -19.856323 0.549261 -1.168187
v -2.061862 0.549288 -1.168188
v -2.061862 0.549288 -1.109688
v -2.061862 0.549289 -1.168188
v -15.805494 4.609445 -1.168187
v -15.805494 4.609445 -1.109687
v -15.198492 4.609446 -1.109687
v -15.198492 4.609446 -1.168187
v -2.061868 4.609467 -1.109687
v -2.061868 4.609467 -1.168187
v -2.061862 0.549288 -1.109688
v -2.061868 4.609467 -1.109687
v -19.856323 0.549261 -1.109687
v -15.805494 4.609445 -1.109687
v -19.832325 0.831453 -1.109687
v -20.060059 1.066410 -1.109687
v -15.805495 4.607757 -1.109687
v -15.805495 4.607757 -1.168187
v -15.805387 5.270949 -1.168187
v -15.805387 5.270949 -1.109687
v -20.400150 1.408237 -1.109687
v -20.060059 1.064721 -1.109687
v -15.805495 4.607757 -1.109687
v -20.681065 1.410595 -1.109687
v -20.060059 1.064721 -1.168187
v -20.400150 1.408237 -1.168187
v -15.805387 5.270949 -1.168187
v -20.681065 1.410595 -1.168187
v -15.805494 4.609445 -1.168187
v -20.060059 1.066410 -1.168187
v -15.198492 4.609446 -1.168187
v -19.856323 0.549261 -1.168187
v -2.061862 0.549288 -1.168188
v -2.061868 4.609467 -1.168187
v -2.061862 0.549289 -1.168188
v 15.831437 1.367538 -0.221426
v 15.831437 1.367538 -0.162925
v 15.261790 0.812115 -0.162925
v 15.261790 0.812115 -0.221426
v -2.065760 0.545377 -0.221425
v -2.065760 0.545377 -0.162925
v 15.835341 1.371449 -1.168188
v 15.835341 1.371449 -1.168188
v 15.835341 1.371449 -1.109688
v 15.265689 0.816026 -1.109688
v 15.265689 0.816026 -1.168188
v -20.060059 1.066410 -1.109687
v -20.060059 1.066410 -1.168187
v -2.061862 0.549288 -1.168188
v -2.061862 0.549288 -1.109688
v -20.060059 1.064721 -1.168187
v -20.400150 1.408237 -1.168187
v -15.805387 5.270949 -1.109687
v -15.803638 16.764639 -1.109685
vt -3.578600 -17.322849
vt -3.503600 -17.322849
vt -3.503600 -3.268050
vt -3.578600 -23.333050
vt -3.503600 -23.333050
vt -3.503600 -18.127651
vt 4.578600 -3.268050
vt 4.503600 -3.268050
vt 4.503600 -22.289051
vt 4.578600 -22.289051
vt 4.578600 2.253950
vt 4.503600 2.253950
vt 4.503600 -19.955250
vt 4.578600 -19.955250
vt -3.503600 2.605950
vt -3.578600 2.605950
vt -3.578600 -2.792650
vt -3.503600 -2.792650
vt -3.503600 -2.004050
vt -3.503600 3.434550
vt -3.578600 3.434550
vt -3.578600 -2.004050
vt -3.503600 -2.792650
vt -3.578600 -2.792650
vt -3.578600 -3.700450
vt -3.503600 -3.700450
vt -3.578600 -19.955250
vt -3.503600 -19.955250
vt 2.458600 -22.991051
vt 2.805000 -22.641048
vt -2.593600 -18.127651
vt 2.453000 -23.333050
vt -3.501400 -18.127651
vt -19.756201 -23.333050
vt -19.756201 -18.127651
vt -3.578600 -3.268050
vt -3.503600 -18.127651
vt -3.578600 -18.127651
vt -3.578600 -23.333050
vt -3.578600 -18.095848
vt -3.503600 -18.095848
vt -3.069000 -2.831650
vt -3.069000 3.434550
vt -17.123800 3.434550
vt -22.090000 -2.831650
vt -17.896799 3.434550
vt -22.080000 -2.388050
vt -22.444201 -2.004050
vt 20.756201 -23.333050
vt 20.756201 -18.127651
vt 4.501400 -18.127651
vt -1.453000 -23.333050
vt 3.593600 -18.127651
vt -1.458600 -22.991051
vt -1.805000 -22.641048
vt -3.503600 -2.004050
vt -3.578600 -2.004050
vt -3.578600 -2.388050
vt -3.503600 -2.388050
vt -3.503600 -2.388050
vt -3.578600 -2.388050
vt -3.578600 -2.831650
vt -3.503600 -2.831650
vt 4.578600 -22.641048
vt 4.503600 -22.641048
vt 4.503600 -22.991051
vt 4.578600 -22.991051
vt 4.578600 -22.991051
vt 4.503600 -22.991051
vt 4.503600 -23.333050
vt 4.578600 -23.333050
vt 18.896799 3.434550
vt 23.080000 -2.388050
vt 23.444201 -2.004050
vt 18.123800 3.434550
vt 23.090000 -2.831650
vt 4.069000 -2.831650
vt 4.069000 3.434550
vt -19.756201 -23.333050
vt -19.756201 -18.127651
vt -36.598000 -18.127651
vt -3.578600 -22.228851
vt -3.503600 -22.228851
vt -3.503600 -2.544050
vt -3.578600 -2.544050
vt 4.578600 -19.862850
vt 4.578600 -18.127651
vt 4.503600 -18.127651
vt 4.503600 -23.333050
vt -3.503600 -22.670052
vt -3.578600 -22.670052
vt -3.578600 -22.971249
vt -3.503600 -22.971249
vt -3.578600 -22.971249
vt -3.578600 -23.333050
vt -3.503600 -23.333050
vt -3.578600 -22.672249
vt -3.503600 -22.672249
vt -3.503600 -22.231850
vt -3.578600 -22.231850
vt -3.578600 44.067749
vt -3.503600 44.067749
vt -3.503600 44.427948
vt -3.578600 44.427948
vt -3.503600 -43.029846
vt -3.503600 -37.575249
vt -3.578600 -37.575249
vt -3.578600 -43.029846
vt -3.503600 43.631752
vt -3.578600 43.631752
vt -3.578600 38.177155
vt -3.503600 38.177155
vt 4.503600 -42.768646
vt 4.578600 -42.768646
vt 4.578600 -19.955250
vt 4.503600 -19.955250
vt 4.578600 -19.955250
vt 4.578600 -19.955250
vt 4.503600 -19.955250
vt -3.578600 -37.575249
vt -3.503600 -37.575249
vt -3.503600 -36.797050
vt -3.578600 -36.797050
vt -3.503600 -19.955250
vt -3.578600 -19.955250
vt 4.578600 -23.333050
vt 4.578600 -19.862850
vt 4.503600 -23.333050
vt -42.569599 -23.333050
vt -37.376202 -18.127651
vt -42.538799 -22.971249
vt -42.830799 -22.670052
vt 4.503600 -18.129848
vt 4.578600 -18.129848
vt 4.578600 -17.279652
vt 4.503600 -17.279652
vt 4.578600 -2.544050
vt 4.503600 -2.544050
vt -22.032801 44.067749
vt -22.473200 43.631752
vt -17.930799 38.177155
vt -22.029800 44.427948
vt -17.080601 38.176949
vt -2.345000 44.427948
vt -2.345000 38.174751
vt 18.930799 38.177155
vt 23.473200 43.631752
vt 23.032801 44.067749
vt 18.080601 38.176949
vt 23.029800 44.427948
vt 3.345000 44.427948
vt 3.345000 38.174751
vt 38.376202 -18.127651
vt 43.538799 -22.971249
vt 43.830799 -22.670052
vt 37.598000 -18.127651
vt 43.569599 -23.333050
vt 20.756201 -23.333050
vt 20.756201 -19.862850
vt 20.756201 -18.127651
vt 20.756201 -23.333050
vt -3.503600 -18.127651
vt -3.578600 -18.127651
vt -3.578600 -23.333050
vt -3.578600 -23.333050
vt -3.503600 -23.333050
vt -3.503600 -18.127651
vt 4.578600 -3.268050
vt 4.503600 -3.268050
vt 4.503600 -22.289051
vt 4.578600 -22.289051
vt 4.578600 2.253950
vt 4.503600 2.253950
vt 4.503600 -19.955250
vt 4.578600 -19.955250
vt -3.503600 2.605950
vt -3.578600 2.605950
vt -3.578600 -2.792650
vt -3.503600 -2.792650
vt -3.503600 -2.004050
vt -3.503600 3.434550
vt -3.578600 3.434550
vt -3.578600 -2.004050
vt -3.503600 -2.792650
vt -3.578600 -2.792650
vt -3.578600 -3.700450
vt -3.503600 -3.700450
vt -3.578600 -19.955250
vt -3.503600 -19.955250
vt 2.458600 -22.991051
vt 2.805000 -22.641048
vt -2.593600 -18.127651
vt 2.453000 -23.333050
vt -3.501400 -18.127651
vt -19.756201 -23.333050
vt -19.756201 -18.127651
vt -3.503600 -3.268050
vt -3.578600 -3.268050
vt -3.578600 -17.322849
vt -3.503600 -17.322849
vt -3.578600 -18.095848
vt -3.503600 -18.095848
vt -3.069000 -2.831650
vt -3.069000 3.434550
vt -17.123800 3.434550
vt -22.090000 -2.831650
vt -17.896799 3.434550
vt -22.080000 -2.388050
vt -22.444201 -2.004050
vt 20.756201 -23.333050
vt 20.756201 -18.127651
vt 4.501400 -18.127651
vt -1.453000 -23.333050
vt 3.593600 -18.127651
vt -1.458600 -22.991051
vt -1.805000 -22.641048
vt -3.503600 -2.004050
vt -3.578600 -2.004050
vt -3.578600 -2.388050
vt -3.503600 -2.388050
vt -3.503600 -2.388050
vt -3.578600 -2.388050
vt -3.578600 -2.831650
vt -3.503600 -2.831650
vt 4.578600 -22.641048
vt 4.503600 -22.641048
vt 4.503600 -22.991051
vt 4.578600 -22.991051
vt 4.578600 -22.991051
vt 4.503600 -22.991051
vt 4.503600 -23.333050
vt 4.578600 -23.333050
vt 18.896799 3.434550
vt 23.080000 -2.388050
vt 23.444201 -2.004050
vt 18.123800 3.434550
vt 23.090000 -2.831650
vt 4.069000 -2.831650
vt 4.069000 3.434550
vt -19.756201 -23.333050
vt -19.756201 -18.127651
vt -36.598000 -18.127651
vt -3.578600 -22.228851
vt -3.503600 -22.228851
vt -3.503600 -2.544050
vt -3.578600 -2.544050
vt 4.578600 -19.862850
vt 4.578600 -18.127651
vt 4.503600 -18.127651
vt 4.503600 -23.333050
vt -3.503600 -22.670052
vt -3.578600 -22.670052
vt -3.578600 -22.971249
vt -3.503600 -22.971249
vt -3.503600 -22.971249
vt -3.578600 -22.971249
vt -3.578600 -23.333050
vt -3.503600 -23.333050
vt -3.578600 -22.672249
vt -3.503600 -22.672249
vt -3.503600 -22.231850
vt -3.578600 -22.231850
vt -3.578600 44.067749
vt -3.503600 44.067749
vt -3.503600 44.427948
vt -3.578600 44.427948
vt -3.503600 -43.029846
vt -3.503600 -37.575249
vt -3.578600 -37.575249
vt -3.578600 -43.029846
vt -3.503600 43.631752
vt -3.578600 43.631752
vt -3.578600 38.177155
vt -3.503600 38.177155
vt 4.503600 -42.768646
vt 4.578600 -42.768646
vt 4.578600 -19.955250
vt 4.503600 -19.955250
vt 4.578600 -19.955250
vt 4.578600 -19.955250
vt 4.503600 -19.955250
vt -3.578600 -37.575249
vt -3.503600 -37.575249
vt -3.503600 -36.797050
vt -3.578600 -36.797050
vt -3.503600 -19.955250
vt -3.578600 -19.955250
vt 4.578600 -23.333050
vt 4.578600 -19.862850
vt 4.503600 -23.333050
vt -42.569599 -23.333050
vt -37.376202 -18.127651
vt -42.538799 -22.971249
vt -42.830799 -22.670052
vt 4.503600 -18.129848
vt 4.578600 -18.129848
vt 4.578600 -17.279652
vt 4.503600 -17.279652
vt 4.578600 -2.544050
vt 4.503600 -2.544050
vt -22.032801 44.067749
vt -22.473200 43.631752
vt -17.930799 38.177155
vt -22.029800 44.427948
vt -17.080601 38.176949
vt -2.345000 44.427948
vt -2.345000 38.174751
vt 18.930799 38.177155
vt 23.473200 43.631752
vt 23.032801 44.067749
vt 18.080601 38.176949
vt 23.029800 44.427948
vt 3.345000 44.427948
vt 3.345000 38.174751
vt 38.376202 -18.127651
vt 43.538799 -22.971249
vt 43.830799 -22.670052
vt 37.598000 -18.127651
vt 43.569599 -23.333050
vt 20.756201 -23.333050
vt 20.756201 -19.862850
vt 20.756201 -18.127651
vt 20.756201 -23.333050
vn -1.0000 -0.0000 0.0000
vn 1.0000 0.0000 0.0000
vn 0.0000 -1.0000 -0.0000
vn 0.6414 0.7672 -0.0000
vn -0.6414 -0.7672 0.0000
vn -0.0000 1.0000 0.0000
vn 0.0000 -0.0000 1.0000
vn -0.0000 0.0000 -1.0000
vn 0.6882 -0.7255 0.0000
vn 0.6886 -0.7252 0.0000
vn -0.0225 -0.9997 0.0000
vn 0.7106 -0.7036 -0.0000
vn 0.7108 -0.7034 -0.0000
vn 0.7111 -0.7031 0.0000
vn 0.9999 -0.0163 0.0004
vn 0.9999 -0.0163 0.0000
vn 0.9999 -0.0168 -0.0000
vn 0.9999 -0.0170 0.0000
vn -1.0000 -0.0000 -0.0001
vn -0.7181 -0.6960 0.0000
vn -0.7183 -0.6957 0.0000
vn -0.9965 0.0841 0.0000
vn -0.9964 0.0842 0.0000
vn -0.9964 0.0843 0.0000
vn -0.7106 -0.7036 0.0000
vn -0.3891 -0.9212 -0.0000
vn -0.3892 -0.9212 -0.0000
vn -0.0084 -1.0000 0.0000
vn -0.6399 0.7684 0.0000
vn 0.6399 -0.7684 0.0000
vn -0.3247 -0.9458 0.0000
vn 0.9458 -0.0000 0.3247
vn 0.7071 -0.7071 -0.0000
vn 1.0000 -0.0002 0.0000
vn 0.0065 -0.0021 -1.0000
vn 0.9998 -0.0063 0.0193
vn 0.9999 -0.0167 -0.0000
vn 0.9999 -0.0169 0.0000
vn -0.7180 -0.6961 0.0000
vn -0.9965 0.0842 0.0000
vn -0.6387 -0.7695 0.0000
vn -0.6399 0.7685 0.0001
vn -0.3247 -0.9458 0.0001
vn 0.9458 0.0001 0.3247
vn -0.0975 0.0008 -0.9952
vn 0.0032 -0.0011 -1.0000
vn -0.9999 -0.0031 -0.0097
usemtl Mi_Parquet.001
s 1
f 34/1/1 35/2/1 32/3/1
f 4/4/1 5/5/1 6/6/1
f 7/7/2 8/8/2 9/9/2
f 9/9/2 10/10/2 7/7/2
f 11/11/3 12/12/3 13/13/3
f 13/13/3 14/14/3 11/11/3
f 15/15/4 49/16/4 16/17/4
f 16/17/4 17/18/4 15/15/4
f 18/19/5 19/20/5 20/21/5
f 20/21/5 21/22/5 18/19/5
f 22/23/6 23/24/6 24/25/6
f 24/25/6 25/26/6 22/23/6
f 25/26/6 24/25/6 139/27/6
f 139/27/6 26/28/6 25/26/6
f 27/29/7 28/30/7 22/31/7
f 60/32/7 27/29/7 22/31/7
f 60/32/7 22/31/7 29/33/7
f 30/34/7 60/32/7 29/33/7
f 29/33/7 31/35/7 30/34/7
f 32/3/1 33/36/1 34/1/1
f 1/37/1 2/38/1 3/39/1
f 35/2/1 34/1/1 20/40/1
f 20/40/1 36/41/1 35/2/1
f 37/42/7 38/43/7 39/44/7
f 39/44/7 40/45/7 37/42/7
f 40/45/7 39/44/7 41/46/7
f 40/45/7 41/46/7 42/47/7
f 41/46/7 18/48/7 42/47/7
f 43/49/8 44/50/8 45/51/8
f 45/51/8 46/52/8 43/49/8
f 46/52/8 45/51/8 47/53/8
f 46/52/8 47/53/8 48/54/8
f 47/53/8 49/55/8 48/54/8
f 50/56/9 51/57/10 274/58/9
f 274/58/9 275/59/9 50/56/9
f 53/60/11 52/61/11 54/62/11
f 54/62/11 55/63/11 53/60/11
f 56/64/12 57/65/12 276/66/13
f 276/66/13 277/67/14 56/64/12
f 59/68/15 58/69/16 60/70/17
f 60/70/17 61/71/18 59/68/15
f 62/72/8 63/73/8 64/74/8
f 62/72/8 65/75/8 63/73/8
f 65/75/8 66/76/8 63/73/8
f 7/77/8 66/76/8 65/75/8
f 65/75/8 67/78/8 7/77/8
f 109/79/7 110/80/7 111/81/7
f 71/82/1 72/83/1 73/84/19
f 73/84/19 131/85/19 71/82/1
f 74/86/2 75/87/2 107/88/2
f 74/86/2 107/88/2 76/89/2
f 77/90/20 78/91/20 79/92/20
f 79/92/20 80/93/21 77/90/20
f 80/93/22 81/94/23 82/95/24
f 82/95/24 83/96/24 80/93/22
f 84/97/25 85/98/25 86/99/26
f 86/99/26 87/100/26 84/97/25
f 87/101/27 88/102/27 89/103/28
f 89/103/28 90/104/28 87/101/27
f 114/105/29 91/106/29 92/107/29
f 92/107/29 93/108/29 114/105/29
f 94/109/30 95/110/30 96/111/30
f 96/111/30 97/112/30 94/109/30
f 98/113/3 99/114/3 278/115/31
f 278/115/31 279/116/3 98/113/3
f 100/117/32 102/118/33 101/119/2
f 103/120/6 104/121/6 105/122/6
f 105/122/6 106/123/6 103/120/6
f 106/123/6 105/122/6 107/124/6
f 107/124/6 108/125/6 106/123/6
f 68/126/2 69/127/2 70/128/2
f 111/81/7 98/129/7 109/79/7
f 98/129/7 111/81/7 112/130/7
f 98/129/7 112/130/7 113/131/7
f 112/130/7 114/132/7 113/131/7
f 115/133/34 116/134/34 117/135/34
f 117/135/34 124/136/34 115/133/34
f 124/136/34 117/135/34 118/137/34
f 118/137/34 119/138/34 124/136/34
f 120/139/7 121/140/7 122/141/7
f 123/142/7 120/139/7 122/141/7
f 123/142/7 122/141/7 124/143/7
f 125/144/7 123/142/7 124/143/7
f 124/143/7 126/145/7 125/144/7
f 127/146/8 84/147/8 128/148/8
f 129/149/8 127/146/8 128/148/8
f 130/150/8 129/149/8 128/148/8
f 129/149/8 130/150/8 131/151/8
f 131/151/8 132/152/8 129/149/8
f 133/153/8 134/154/8 135/155/8
f 133/153/8 136/156/8 134/154/8
f 136/156/8 137/157/8 134/154/8
f 136/156/8 138/158/35 137/157/8
f 136/156/8 69/159/8 138/158/35
f 136/156/8 139/160/8 69/159/8
f 69/159/8 140/161/36 138/158/35
f 141/162/1 142/163/1 143/164/1
f 144/165/1 145/166/1 146/167/1
f 147/168/2 148/169/2 179/170/2
f 179/170/2 149/171/2 147/168/2
f 150/172/3 151/173/3 152/174/3
f 152/174/3 273/175/3 150/172/3
f 153/176/4 154/177/4 155/178/4
f 155/178/4 156/179/4 153/176/4
f 157/180/5 158/181/5 159/182/5
f 159/182/5 202/183/5 157/180/5
f 167/184/6 160/185/6 161/186/6
f 161/186/6 162/187/6 167/184/6
f 162/187/6 161/186/6 163/188/6
f 163/188/6 164/189/6 162/187/6
f 165/190/7 166/191/7 167/192/7
f 168/193/7 165/190/7 167/192/7
f 168/193/7 167/192/7 169/194/7
f 170/195/7 168/193/7 169/194/7
f 169/194/7 171/196/7 170/195/7
f 172/197/1 173/198/1 174/199/1
f 174/199/1 175/200/1 172/197/1
f 175/200/1 174/199/1 159/201/1
f 159/201/1 176/202/1 175/200/1
f 177/203/7 178/204/7 175/205/7
f 175/205/7 179/206/7 177/203/7
f 179/206/7 175/205/7 180/207/7
f 179/206/7 180/207/7 181/208/7
f 180/207/7 182/209/7 181/208/7
f 183/210/8 184/211/8 185/212/8
f 185/212/8 186/213/8 183/210/8
f 186/213/8 185/212/8 187/214/8
f 186/213/8 187/214/8 188/215/8
f 187/214/8 189/216/8 188/215/8
f 182/217/9 190/218/10 280/219/9
f 280/219/9 282/220/9 182/217/9
f 192/221/11 281/222/11 193/223/11
f 193/223/11 194/224/11 192/221/11
f 195/225/13 196/226/13 283/227/13
f 283/227/13 284/228/14 195/225/13
f 198/229/15 197/230/16 199/231/37
f 199/231/37 200/232/38 198/229/15
f 201/233/8 191/234/8 202/235/8
f 201/233/8 203/236/8 191/234/8
f 203/236/8 204/237/8 191/234/8
f 205/238/8 204/237/8 203/236/8
f 203/236/8 206/239/8 205/238/8
f 249/240/7 250/241/7 245/242/7
f 209/243/1 210/244/1 211/245/19
f 211/245/19 212/246/19 209/243/1
f 213/247/2 214/248/2 215/249/2
f 213/247/2 215/249/2 216/250/2
f 228/251/20 231/252/39 217/253/20
f 217/253/20 218/254/20 228/251/20
f 219/255/24 220/256/40 221/257/24
f 221/257/24 238/258/40 219/255/24
f 289/259/25 222/260/25 223/261/27
f 223/261/27 290/262/41 289/259/25
f 224/263/26 225/264/26 226/265/28
f 226/265/28 227/266/28 224/263/26
f 285/267/29 229/268/29 230/269/29
f 230/269/29 286/270/42 285/267/29
f 232/271/30 233/272/30 234/273/30
f 234/273/30 235/274/30 232/271/30
f 238/275/3 239/276/3 287/277/43
f 287/277/43 288/278/3 238/275/3
f 240/279/44 242/280/33 241/281/2
f 243/282/6 244/283/6 245/284/6
f 245/284/6 246/285/6 243/282/6
f 246/285/6 245/284/6 247/286/6
f 247/286/6 248/287/6 246/285/6
f 273/288/2 207/289/2 208/290/2
f 245/242/7 251/291/7 249/240/7
f 251/291/7 245/242/7 252/292/7
f 251/291/7 252/292/7 253/293/7
f 252/292/7 254/294/7 253/293/7
f 255/295/34 256/296/34 257/297/34
f 257/297/34 291/298/34 255/295/34
f 291/298/34 257/297/34 237/299/34
f 237/299/34 292/300/34 291/298/34
f 259/301/7 260/302/7 261/303/7
f 262/304/7 259/301/7 261/303/7
f 262/304/7 261/303/7 258/305/7
f 211/306/7 262/304/7 258/305/7
f 258/305/7 236/307/7 211/306/7
f 256/308/8 263/309/8 264/310/45
f 265/311/8 256/308/8 264/310/45
f 266/312/8 265/311/8 264/310/45
f 265/311/8 266/312/8 212/313/8
f 212/313/8 237/314/8 265/311/8
f 267/315/8 217/316/8 268/317/8
f 267/315/8 269/318/8 217/316/8
f 269/318/8 270/319/8 217/316/8
f 269/318/8 271/320/46 270/319/8
f 269/318/8 213/321/8 271/320/46
f 269/318/8 272/322/8 213/321/8
f 213/321/8 273/323/47 271/320/46
