# Blender v2.83.1 OBJ File: 'test_panel.blend'
# www.blender.org
mtllib frame.mtl
o Cube
v 1.865165 -3.330246 -0.022757
v 1.867665 -3.330246 -0.025257
v 1.867665 -3.331522 -0.022757
v 1.867665 -3.331522 2.022757
v 1.867665 -3.330246 2.025257
v 1.865165 -3.330246 2.022757
v 1.867665 -3.232785 -0.025257
v 1.865165 -3.232785 -0.022757
v 1.867665 -3.231509 -0.022757
v 1.865165 -3.232785 2.022757
v 1.867665 -3.232785 2.025257
v 1.867665 -3.231509 2.022757
v 3.932336 -3.330246 -0.025257
v 3.934836 -3.330246 -0.022757
v 3.932336 -3.331522 -0.022757
v 3.934836 -3.330246 2.022757
v 3.932336 -3.330246 2.025257
v 3.932336 -3.331522 2.022757
v 3.932336 -3.231509 -0.022757
v 3.934836 -3.232785 -0.022757
v 3.932336 -3.232785 -0.025257
v 3.932336 -3.231509 2.022757
v 3.932336 -3.232785 2.025257
v 3.934836 -3.232785 2.022757
v 3.869122 -3.231509 -0.022757
v 3.869122 -3.232785 -0.025257
v 3.864122 -3.232785 -0.025257
v 3.864122 -3.231509 -0.022757
v 1.930878 -3.231509 -0.022757
v 1.935878 -3.231509 -0.022757
v 1.935878 -3.232785 -0.025257
v 1.930878 -3.232785 -0.025257
v 1.930878 -3.231509 2.022757
v 1.930878 -3.232785 2.025257
v 1.935878 -3.232785 2.025257
v 1.935878 -3.231509 2.022757
v 3.869122 -3.231509 2.022757
v 3.864122 -3.231509 2.022757
v 3.864122 -3.232785 2.025257
v 3.869122 -3.232785 2.025257
v 1.930878 -3.331522 -0.022757
v 1.930878 -3.330246 -0.025257
v 1.935878 -3.330246 -0.025257
v 1.935878 -3.331522 -0.022757
v 3.869122 -3.331522 -0.022757
v 3.864122 -3.331522 -0.022757
v 3.864122 -3.330246 -0.025257
v 3.869122 -3.330246 -0.025257
v 3.869122 -3.331522 2.022757
v 3.869122 -3.330246 2.025257
v 3.864122 -3.330246 2.025257
v 3.864122 -3.331522 2.022757
v 1.930878 -3.331522 2.022757
v 1.935878 -3.331522 2.022757
v 1.935878 -3.330246 2.025257
v 1.930878 -3.330246 2.025257
v 1.865165 -3.330246 0.046959
v 1.867665 -3.331522 0.046959
v 1.867665 -3.331522 0.051959
v 1.865165 -3.330246 0.051959
v 1.865165 -3.330246 1.953041
v 1.865165 -3.330246 1.948041
v 1.867665 -3.331522 1.948041
v 1.867665 -3.331522 1.953041
v 1.865165 -3.232785 1.953041
v 1.867665 -3.231509 1.953041
v 1.867665 -3.231509 1.948041
v 1.865165 -3.232785 1.948041
v 1.865165 -3.232785 0.046959
v 1.865165 -3.232785 0.051959
v 1.867665 -3.231509 0.051959
v 1.867665 -3.231509 0.046959
v 3.932336 -3.231509 1.953041
v 3.934836 -3.232785 1.953041
v 3.934836 -3.232785 1.948041
v 3.932336 -3.231509 1.948041
v 3.932336 -3.231509 0.046959
v 3.932336 -3.231509 0.051959
v 3.934836 -3.232785 0.051959
v 3.934836 -3.232785 0.046959
v 3.934836 -3.330246 1.953041
v 3.932336 -3.331522 1.953041
v 3.932336 -3.331522 1.948041
v 3.934836 -3.330246 1.948041
v 3.934836 -3.330246 0.046959
v 3.934836 -3.330246 0.051959
v 3.932336 -3.331522 0.051959
v 3.932336 -3.331522 0.046959
v 3.869122 -3.331522 1.953041
v 3.864122 -3.331522 1.953041
v 3.864122 -3.330246 1.950541
v 3.866622 -3.330246 1.948041
v 3.869122 -3.331522 1.948041
v 3.869122 -3.331522 0.046959
v 3.869122 -3.331522 0.051959
v 3.866622 -3.330246 0.051959
v 3.864122 -3.330246 0.049459
v 3.864122 -3.331522 0.046959
v 1.930878 -3.331522 1.953041
v 1.930878 -3.331522 1.948041
v 1.933378 -3.330246 1.948041
v 1.935878 -3.330246 1.950541
v 1.935878 -3.331522 1.953041
v 1.930878 -3.331522 0.046959
v 1.935878 -3.331522 0.046959
v 1.935878 -3.330246 0.049459
v 1.933378 -3.330246 0.051959
v 1.930878 -3.331522 0.051959
v 1.930878 -3.231509 1.953041
v 1.935878 -3.231509 1.953041
v 1.935878 -3.232785 1.950541
v 1.933378 -3.232785 1.948041
v 1.930878 -3.231509 1.948041
v 1.930878 -3.231509 0.046959
v 1.930878 -3.231509 0.051959
v 1.933378 -3.232785 0.051959
v 1.935878 -3.232785 0.049459
v 1.935878 -3.231509 0.046959
v 3.869122 -3.231509 1.953041
v 3.869122 -3.231509 1.948041
v 3.866622 -3.232785 1.948041
v 3.864122 -3.232785 1.950541
v 3.864122 -3.231509 1.953041
v 3.869122 -3.231509 0.046959
v 3.864122 -3.231509 0.046959
v 3.864122 -3.232785 0.049459
v 3.866622 -3.232785 0.051959
v 3.869122 -3.231509 0.051959
vt 0.794721 0.503189
vt 0.871946 0.503189
vt 0.871946 0.746811
vt 0.794721 0.746811
vt 0.377788 0.333441
vt 0.455545 0.333441
vt 0.455545 0.416559
vt 0.377788 0.416559
vt 0.377788 0.419721
vt 0.455545 0.419721
vt 0.455545 0.496946
vt 0.377788 0.496946
vt 0.544455 0.003189
vt 0.622212 0.003189
vt 0.622212 0.246811
vt 0.544455 0.246811
vt 0.628054 0.503189
vt 0.705279 0.503189
vt 0.705279 0.746811
vt 0.628054 0.746811
vt 0.377788 0.253054
vt 0.455545 0.253054
vt 0.455545 0.330279
vt 0.377788 0.330279
vt 0.544455 0.753054
vt 0.622212 0.753054
vt 0.622212 0.830279
vt 0.544455 0.830279
vt 0.377788 0.833441
vt 0.455545 0.833441
vt 0.455545 0.916559
vt 0.377788 0.916559
vt 0.377788 0.919721
vt 0.455545 0.919721
vt 0.455545 0.996946
vt 0.377788 0.996946
vt 0.544455 0.333441
vt 0.622212 0.333441
vt 0.622212 0.416559
vt 0.544455 0.416559
vt 0.544455 0.503189
vt 0.622212 0.503189
vt 0.622212 0.746811
vt 0.544455 0.746811
vt 0.458443 0.003189
vt 0.541557 0.003189
vt 0.541557 0.246811
vt 0.458443 0.246811
vt 0.377788 0.503189
vt 0.455545 0.503189
vt 0.455545 0.746811
vt 0.377788 0.746811
vt 0.708441 0.503189
vt 0.791559 0.503189
vt 0.791559 0.746811
vt 0.708441 0.746811
vt 0.208441 0.503189
vt 0.291559 0.503189
vt 0.291559 0.746811
vt 0.208441 0.746811
vt 0.458443 0.909226
vt 0.458443 0.340774
vt 0.541557 0.340774
vt 0.541557 0.909226
vt 0.544455 0.253054
vt 0.622212 0.253054
vt 0.622212 0.330279
vt 0.544455 0.330279
vt 0.458443 0.419721
vt 0.541557 0.419721
vt 0.541557 0.496946
vt 0.458443 0.496946
vt 0.544455 0.833441
vt 0.622212 0.833441
vt 0.622212 0.916559
vt 0.544455 0.916559
vt 0.294721 0.503189
vt 0.371946 0.503189
vt 0.371946 0.746811
vt 0.294721 0.746811
vt 0.458443 0.828019
vt 0.541557 0.828019
vt 0.541557 0.421981
vt 0.458443 0.421981
vt 0.544455 0.919721
vt 0.622212 0.919721
vt 0.622212 0.996946
vt 0.544455 0.996946
vt 0.458443 0.253054
vt 0.541557 0.253054
vt 0.541557 0.330279
vt 0.458443 0.330279
vt 0.377788 0.753054
vt 0.455545 0.753054
vt 0.455545 0.830279
vt 0.377788 0.830279
vt 0.458443 0.753054
vt 0.541557 0.753054
vt 0.541557 0.830279
vt 0.458443 0.830279
vt 0.544455 0.419721
vt 0.622212 0.419721
vt 0.622212 0.496946
vt 0.544455 0.496946
vt 0.458443 0.503189
vt 0.541557 0.503189
vt 0.541557 0.746811
vt 0.458443 0.746811
vt 0.128054 0.503189
vt 0.205279 0.503189
vt 0.205279 0.746811
vt 0.128054 0.746811
vt 0.458443 0.919721
vt 0.541557 0.919721
vt 0.541557 0.996946
vt 0.458443 0.996946
vt 0.541667 0.340821
vt 0.541667 0.421934
vt 0.541667 0.828066
vt 0.541667 0.909179
vt 0.458333 0.340821
vt 0.458333 0.909179
vt 0.458333 0.828066
vt 0.458333 0.421934
vt 0.377788 0.003189
vt 0.375000 0.003189
vt 0.377788 0.000000
vt 0.625000 0.996946
vt 0.622212 1.000000
vt 0.125000 0.503189
vt 0.128054 0.500000
vt 0.625000 0.246811
vt 0.622212 0.250000
vt 0.375000 0.746811
vt 0.371946 0.750000
vt 0.625000 0.746811
vt 0.622212 0.750000
vt 0.377788 0.500000
vt 0.375000 0.496946
vt 0.625000 0.496946
vt 0.622212 0.500000
vt 0.375000 0.419721
vt 0.375000 0.416667
vt 0.377788 0.416667
vt 0.377788 0.333333
vt 0.375000 0.333333
vt 0.375000 0.330279
vt 0.625000 0.330279
vt 0.625000 0.333333
vt 0.622212 0.333333
vt 0.622212 0.416667
vt 0.625000 0.416667
vt 0.625000 0.419721
vt 0.375000 0.919721
vt 0.375000 0.916667
vt 0.377788 0.916667
vt 0.377788 0.833333
vt 0.375000 0.833333
vt 0.375000 0.830279
vt 0.625000 0.830279
vt 0.625000 0.833333
vt 0.622212 0.833333
vt 0.622212 0.916667
vt 0.625000 0.916667
vt 0.625000 0.919721
vt 0.455545 0.003189
vt 0.455545 0.000000
vt 0.458333 0.000000
vt 0.458333 0.003189
vt 0.541667 0.003189
vt 0.541667 0.000000
vt 0.544455 0.000000
vt 0.455545 0.246811
vt 0.125000 0.746811
vt 0.544455 1.000000
vt 0.875000 0.503189
vt 0.875000 0.746811
vt 0.377788 0.246811
vt 0.205279 0.500000
vt 0.628054 0.500000
vt 0.705279 0.500000
vt 0.294721 0.750000
vt 0.871946 0.750000
vt 0.794721 0.750000
vt 0.294721 0.500000
vt 0.371946 0.500000
vt 0.208441 0.500000
vt 0.291559 0.500000
vt 0.794721 0.500000
vt 0.871946 0.500000
vt 0.708441 0.500000
vt 0.791559 0.500000
vt 0.205279 0.750000
vt 0.128054 0.750000
vt 0.291559 0.750000
vt 0.208441 0.750000
vt 0.705279 0.750000
vt 0.628054 0.750000
vt 0.791559 0.750000
vt 0.708441 0.750000
vt 0.455545 1.000000
vt 0.377788 1.000000
vt 0.541557 1.000000
vt 0.458443 1.000000
vn 0.0000 0.0000 1.0000
vn 0.0000 1.0000 0.0000
vn -1.0000 0.0000 0.0000
vn 0.0000 -1.0000 0.0000
vn 1.0000 0.0000 0.0000
vn 0.0000 0.0000 -1.0000
vn -0.4138 -0.8109 -0.4137
vn -0.4138 -0.8109 0.4137
vn -0.4138 0.8109 -0.4137
vn -0.4138 0.8109 0.4137
vn 0.4139 -0.8109 -0.4138
vn 0.4139 -0.8109 0.4138
vn 0.4139 0.8109 -0.4138
vn 0.4139 0.8109 0.4138
vn 0.0000 0.8907 -0.4546
vn 0.0000 0.8908 -0.4545
vn 0.0000 0.8908 0.4545
vn 0.0000 0.8907 0.4546
vn 0.0000 -0.8907 -0.4546
vn 0.0000 -0.8907 0.4546
vn -0.4545 -0.8907 0.0000
vn -0.4546 -0.8907 0.0000
vn -0.4546 0.8907 0.0000
vn -0.4545 0.8907 0.0000
vn 0.4546 0.8907 0.0000
vn 0.4545 0.8907 0.0000
vn 0.4546 -0.8907 0.0000
vn 0.4545 -0.8907 0.0000
vn -0.2090 -0.9553 -0.2089
vn -0.2089 -0.9553 0.2089
vn 0.2089 -0.9554 -0.2089
vn 0.2089 -0.9554 0.2089
vn 0.2089 0.9554 -0.2089
vn 0.2089 0.9554 0.2089
vn -0.2090 0.9553 -0.2089
vn -0.2089 0.9553 0.2089
vn -0.7071 0.0000 -0.7071
vn -0.7071 0.0000 0.7071
vn 0.0000 0.8907 -0.4545
vn 0.0000 0.8907 0.4545
vn 0.7071 0.0000 -0.7071
vn 0.7071 0.0000 0.7071
vn 0.0000 -0.8907 -0.4545
vn 0.0000 -0.8907 0.4545
vn -0.7072 0.0000 -0.7071
usemtl None
s off
f 34/1/1 11/2/1 5/3/1 56/4/1
f 30/5/2 118/6/2 125/7/2 28/8/2
f 25/9/2 124/10/2 77/11/2 19/12/2
f 61/13/3 6/14/3 10/15/3 65/16/3
f 23/17/1 40/18/1 50/19/1 17/20/1
f 9/21/2 72/22/2 114/23/2 29/24/2
f 82/25/4 18/26/4 49/27/4 89/28/4
f 46/29/4 98/30/4 105/31/4 44/32/4
f 41/33/4 104/34/4 58/35/4 3/36/4
f 110/37/2 36/38/2 38/39/2 123/40/2
f 74/41/5 24/42/5 16/43/5 81/44/5
f 60/45/3 62/46/3 68/47/3 70/48/3
f 20/49/5 80/50/5 85/51/5 14/52/5
f 39/53/1 35/54/1 55/55/1 51/56/1
f 31/57/6 27/58/6 47/59/6 43/60/6
f 107/61/5 116/62/5 112/63/5 101/64/5
f 66/65/2 12/66/2 33/67/2 109/68/2
f 128/69/2 120/70/2 76/71/2 78/72/2
f 90/73/4 52/74/4 54/75/4 103/76/4
f 26/77/6 21/78/6 13/79/6 48/80/6
f 96/81/3 92/82/3 121/83/3 127/84/3
f 99/85/4 53/86/4 4/87/4 64/88/4
f 71/89/2 67/90/2 113/91/2 115/92/2
f 15/93/4 88/94/4 94/95/4 45/96/4
f 87/97/4 83/98/4 93/99/4 95/100/4
f 119/101/2 37/102/2 22/103/2 73/104/2
f 79/105/5 75/106/5 84/107/5 86/108/5
f 7/109/6 32/110/6 42/111/6 2/112/6
f 108/113/4 100/114/4 63/115/4 59/116/4
f 111/117/6 122/118/6 91/119/6 102/120/6
f 117/121/1 106/122/1 97/123/1 126/124/1
f 1/125/7 2/126/7 3/127/7
f 4/87/8 5/128/8 6/129/8
f 7/109/9 8/130/9 9/131/9
f 10/15/10 11/132/10 12/133/10
f 13/79/11 14/134/11 15/135/11
f 16/43/12 17/136/12 18/137/12
f 19/12/13 20/138/13 21/139/13
f 22/103/14 23/140/14 24/141/14
f 25/9/15 26/142/15 27/143/15 28/144/15
f 29/24/16 30/145/16 31/146/16 32/147/16
f 33/67/17 34/148/17 35/149/17 36/150/17
f 37/102/18 38/151/18 39/152/18 40/153/18
f 41/33/19 42/154/19 43/155/19 44/156/19
f 45/96/19 46/157/19 47/158/19 48/159/19
f 49/27/20 50/160/20 51/161/20 52/162/20
f 53/86/20 54/163/20 55/164/20 56/165/20
f 57/166/21 58/167/21 59/168/21 60/169/21
f 61/13/22 62/170/22 63/171/22 64/172/22
f 65/16/23 66/65/23 67/90/23 68/47/23
f 69/173/24 70/48/24 71/89/24 72/22/24
f 73/104/25 74/41/25 75/106/25 76/71/25
f 77/11/26 78/72/26 79/105/26 80/50/26
f 81/44/27 82/25/27 83/98/27 84/107/27
f 85/51/28 86/108/28 87/97/28 88/94/28
f 89/28/29 90/73/29 91/119/29 92/82/29 93/99/29
f 94/95/30 95/100/30 96/81/30 97/123/30 98/30/30
f 99/85/31 100/114/31 101/64/31 102/120/31 103/76/31
f 104/34/32 105/31/32 106/122/32 107/61/32 108/113/32
f 109/68/33 110/37/33 111/117/33 112/63/33 113/91/33
f 114/23/34 115/92/34 116/62/34 117/121/34 118/6/34
f 119/101/35 120/70/35 121/83/35 122/118/35 123/40/35
f 124/10/36 125/7/36 126/124/36 127/84/36 128/69/36
f 7/109/37 2/112/37 1/174/37 8/130/37
f 64/88/21 4/87/21 6/129/21 61/175/21
f 5/3/38 11/2/38 10/176/38 6/177/38
f 72/22/24 9/21/24 8/178/24 69/173/24
f 32/110/39 7/109/39 9/131/39 29/179/39
f 40/18/40 23/17/40 22/180/40 37/181/40
f 80/50/25 20/49/25 19/12/25 77/11/25
f 13/79/41 21/78/41 20/49/41 14/52/41
f 23/17/42 17/20/42 16/43/42 24/42/42
f 88/94/27 15/93/27 14/52/27 85/51/27
f 48/80/43 13/79/43 15/135/43 45/182/43
f 56/4/44 5/3/44 4/183/44 53/184/44
f 21/78/39 26/77/39 25/185/39 19/186/39
f 27/58/39 31/57/39 30/187/39 28/188/39
f 11/2/40 34/1/40 33/189/40 12/190/40
f 35/54/40 39/53/40 38/191/40 36/192/40
f 2/112/43 42/111/43 41/193/43 3/194/43
f 43/60/43 47/59/43 46/195/43 44/196/43
f 17/20/44 50/19/44 49/197/44 18/198/44
f 51/56/44 55/55/44 54/199/44 52/200/44
f 39/53/1 51/56/1 50/19/1 40/18/1
f 34/1/1 56/4/1 55/55/1 35/54/1
f 31/57/6 43/60/6 42/111/6 32/110/6
f 26/77/6 48/80/6 47/59/6 27/58/6
f 98/30/4 46/29/4 45/96/4 94/95/4
f 104/34/4 41/33/4 44/32/4 105/31/4
f 118/6/2 30/5/2 29/24/2 114/23/2
f 124/10/2 25/9/2 28/8/2 125/7/2
f 3/36/21 58/35/21 57/201/21 1/202/21
f 59/116/21 63/115/21 62/203/21 60/204/21
f 12/66/24 66/65/24 65/16/24 10/15/24
f 67/90/24 71/89/24 70/48/24 68/47/24
f 24/42/25 74/41/25 73/104/25 22/103/25
f 75/106/26 79/105/26 78/72/26 76/71/26
f 18/26/27 82/25/27 81/44/27 16/43/27
f 83/98/28 87/97/28 86/108/28 84/107/28
f 52/74/4 90/73/4 89/28/4 49/27/4
f 92/82/21 96/81/21 95/100/21 93/99/21
f 53/86/4 99/85/4 103/76/4 54/75/4
f 100/114/27 108/113/27 107/61/27 101/64/27
f 36/38/2 110/37/2 109/68/2 33/67/2
f 112/63/25 116/62/25 115/92/25 113/91/25
f 37/102/2 119/101/2 123/40/2 38/39/2
f 120/70/24 128/69/24 127/84/24 121/83/24
f 117/121/40 126/124/40 125/7/40 118/6/40
f 110/37/39 123/40/39 122/118/39 111/117/39
f 71/89/2 115/92/2 114/23/2 72/22/2
f 66/65/2 109/68/2 113/91/2 67/90/2
f 97/123/44 106/122/44 105/31/44 98/30/44
f 90/73/43 103/76/43 102/120/43 91/119/43
f 87/97/4 95/100/4 94/95/4 88/94/4
f 82/25/4 89/28/4 93/99/4 83/98/4
f 108/113/4 59/116/4 58/35/4 104/34/4
f 99/85/4 64/88/4 63/115/4 100/114/4
f 79/105/5 86/108/5 85/51/5 80/50/5
f 74/41/5 81/44/5 84/107/5 75/106/5
f 128/69/2 78/72/2 77/11/2 124/10/2
f 119/101/2 73/104/2 76/71/2 120/70/2
f 60/45/3 70/48/3 69/173/3 57/166/3
f 61/13/3 65/16/3 68/47/3 62/46/3
f 101/64/41 112/63/41 111/117/41 102/120/41
f 106/122/42 117/121/42 116/62/42 107/61/42
f 126/124/38 97/123/38 96/81/38 127/84/38
f 91/119/45 122/118/45 121/83/45 92/82/45
f 1/125/3 57/166/3 69/173/3 8/178/3
